<?xml version="1.0" encoding="UTF-8" ?>
<!DOCTYPE svg PUBLIC "-//W3C//DTD SVG 1.1//EN" "http://www.w3.org/Graphics/SVG/1.1/DTD/svg11.dtd">
<svg width="64pt" height="64pt" viewBox="0 0 64 64" version="1.1" xmlns="http://www.w3.org/2000/svg">
<g id="#000000ff">
<path fill="#000000" opacity="1.00" d=" M 4.40 8.37 C 5.56 8.08 6.75 7.94 7.95 7.97 C 23.97 8.02 40.00 8.02 56.02 7.97 C 57.87 8.04 60.20 7.90 61.28 9.75 C 63.17 12.16 61.10 16.06 58.06 15.92 C 41.72 16.14 25.36 15.89 9.02 16.04 C 6.85 15.94 4.06 16.34 2.67 14.22 C 1.24 12.28 2.20 9.27 4.40 8.37 Z" />
<path fill="#000000" opacity="1.00" d=" M 4.31 28.40 C 6.14 27.83 8.11 28.01 10.01 27.96 C 26.03 28.11 42.06 27.86 58.08 28.08 C 61.13 27.88 63.16 31.86 61.27 34.24 C 59.92 36.33 57.16 35.94 55.02 36.04 C 38.65 35.88 22.27 36.15 5.90 35.92 C 1.79 36.12 0.56 29.92 4.31 28.40 Z" />
<path fill="#000000" opacity="1.00" d=" M 4.33 48.39 C 6.16 47.84 8.11 48.00 9.99 47.96 C 26.02 48.11 42.05 47.86 58.07 48.08 C 61.12 47.87 63.18 51.87 61.26 54.26 C 59.90 56.34 57.15 55.94 55.01 56.04 C 38.65 55.89 22.28 56.14 5.92 55.92 C 1.79 56.14 0.55 49.88 4.33 48.39 Z" />
</g>
</svg>
