<?xml version="1.0" encoding="UTF-8" ?>
<!DOCTYPE svg PUBLIC "-//W3C//DTD SVG 1.1//EN" "http://www.w3.org/Graphics/SVG/1.1/DTD/svg11.dtd">
<svg width="64pt" height="64pt" viewBox="0 0 64 64" version="1.1" xmlns="http://www.w3.org/2000/svg">
<g id="#ffffffff">
<path fill="#ffffff" opacity="1.00" d=" M 5.12 8.12 C 22.08 7.82 39.05 8.10 56.02 7.98 C 57.62 8.07 59.53 7.78 60.78 9.04 C 62.71 10.90 62.21 14.68 59.64 15.70 C 58.11 16.13 56.50 15.97 54.94 16.02 C 38.36 15.90 21.77 16.16 5.20 15.89 C 1.07 15.54 1.01 8.56 5.12 8.12 Z" />
<path fill="#ffffff" opacity="1.00" d=" M 5.16 28.12 C 22.79 27.87 40.45 28.02 58.09 28.04 C 62.68 27.65 63.35 35.39 58.84 35.88 C 41.89 36.17 24.93 35.90 7.98 36.02 C 6.35 35.92 4.35 36.24 3.13 34.87 C 1.05 32.81 2.05 28.43 5.16 28.12 Z" />
<path fill="#ffffff" opacity="1.00" d=" M 5.20 48.11 C 22.81 47.88 40.43 48.02 58.05 48.04 C 62.66 47.61 63.38 55.35 58.86 55.88 C 41.89 56.17 24.90 55.90 7.93 56.02 C 6.09 55.99 3.67 56.18 2.66 54.24 C 1.18 52.07 2.39 48.35 5.20 48.11 Z" />
</g>
</svg>
