<?xml version="1.0" encoding="UTF-8" ?>
<!DOCTYPE svg PUBLIC "-//W3C//DTD SVG 1.1//EN" "http://www.w3.org/Graphics/SVG/1.1/DTD/svg11.dtd">
<svg width="64pt" height="64pt" viewBox="0 0 64 64" version="1.1" xmlns="http://www.w3.org/2000/svg">
<g id="#ffffffff">
<path fill="#ffffff" opacity="1.00" d=" M 30.84 0.00 L 32.62 0.00 C 35.28 1.67 33.91 5.40 34.15 8.02 C 34.71 10.64 30.43 11.63 29.96 8.97 C 29.81 6.01 29.15 2.65 30.84 0.00 Z" />
<path fill="#ffffff" opacity="1.00" d=" M 9.37 9.38 C 11.33 7.52 13.19 10.16 14.54 11.40 C 15.80 12.86 18.85 14.78 16.82 16.88 C 14.75 18.75 12.87 15.82 11.45 14.58 C 10.20 13.22 7.52 11.36 9.37 9.38 Z" />
<path fill="#ffffff" opacity="1.00" d=" M 51.50 9.48 C 52.98 7.45 56.36 9.85 54.99 11.92 C 53.44 13.79 51.71 15.51 49.87 17.08 C 48.11 18.66 45.26 15.79 46.95 14.10 C 48.33 12.43 49.89 10.93 51.50 9.48 Z" />
<path fill="#ffffff" opacity="1.00" d=" M 27.45 15.62 C 37.39 12.48 48.62 20.54 48.95 30.91 C 49.95 41.17 39.97 50.53 29.80 48.84 C 20.45 47.87 13.29 38.11 15.30 28.89 C 16.39 22.63 21.32 17.27 27.45 15.62 M 26.37 20.72 C 20.55 23.48 17.74 31.00 20.38 36.88 C 22.85 43.14 30.73 46.39 36.88 43.61 C 43.36 41.06 46.57 32.71 43.33 26.50 C 40.51 20.33 32.37 17.53 26.37 20.72 Z" />
<path fill="#ffffff" opacity="1.00" d=" M 0.00 31.37 C 1.64 28.68 5.43 30.07 8.05 29.84 C 10.65 29.32 11.62 33.56 8.97 34.04 C 6.01 34.20 2.62 34.90 0.00 33.13 L 0.00 31.37 Z" />
<path fill="#ffffff" opacity="1.00" d=" M 55.97 34.16 C 53.36 34.71 52.37 30.47 55.00 29.96 C 57.97 29.80 61.36 29.11 64.00 30.86 L 64.00 32.61 C 62.32 35.29 58.60 33.94 55.97 34.16 Z" />
<path fill="#ffffff" opacity="1.00" d=" M 13.50 47.45 C 14.55 46.00 16.93 46.28 17.44 48.07 C 17.77 50.10 15.64 51.23 14.54 52.59 C 13.19 53.83 11.36 56.43 9.37 54.66 C 7.33 51.61 11.89 49.55 13.50 47.45 Z" />
<path fill="#ffffff" opacity="1.00" d=" M 47.20 47.10 C 49.28 45.21 51.11 48.21 52.56 49.43 C 53.82 50.79 56.49 52.65 54.62 54.65 C 52.62 56.46 50.77 53.79 49.41 52.55 C 48.15 51.09 45.11 49.15 47.20 47.10 Z" />
<path fill="#ffffff" opacity="1.00" d=" M 29.84 55.94 C 29.29 53.34 33.56 52.39 34.03 55.02 C 34.16 57.98 34.91 61.39 33.10 64.00 L 31.36 64.00 C 28.71 62.29 30.07 58.58 29.84 55.94 Z" />
</g>
</svg>
