<?xml version="1.0" encoding="UTF-8" ?>
<!DOCTYPE svg PUBLIC "-//W3C//DTD SVG 1.1//EN" "http://www.w3.org/Graphics/SVG/1.1/DTD/svg11.dtd">
<svg width="64pt" height="64pt" viewBox="0 0 64 64" version="1.1" xmlns="http://www.w3.org/2000/svg">
<g id="#000000ff">
<path fill="#000000" opacity="1.00" d=" M 23.92 0.00 L 25.14 0.00 C 25.57 0.49 26.41 1.48 26.83 1.97 C 24.59 7.38 22.25 13.06 23.17 19.07 C 24.41 31.25 35.78 41.33 48.04 40.97 C 53.01 41.12 57.49 38.86 62.01 37.18 C 62.51 37.59 63.50 38.42 64.00 38.84 L 64.00 40.04 C 60.30 53.50 47.51 63.73 33.49 64.00 L 31.40 64.00 C 23.10 63.45 14.95 60.00 9.21 53.91 C 3.69 48.30 0.62 40.64 0.00 32.86 L 0.00 29.98 C 0.53 16.15 10.66 3.70 23.92 0.00 M 4.97 34.03 C 5.95 46.95 17.12 58.10 30.04 59.03 C 41.07 60.44 51.96 53.83 57.26 44.34 C 45.95 48.01 32.66 44.29 25.15 35.02 C 18.64 27.33 16.63 16.31 19.65 6.74 C 10.17 12.08 3.52 22.97 4.97 34.03 Z" />
</g>
</svg>
